<mxfile host="Electron" modified="2024-02-25T20:06:16.270Z" agent="Mozilla/5.0 (Windows NT 10.0; Win64; x64) AppleWebKit/537.36 (KHTML, like Gecko) draw.io/22.1.2 Chrome/114.0.5735.289 Electron/25.9.4 Safari/537.36" etag="M3_Lp7Gn20urbOqc8xYL" version="22.1.2" type="device">
  <diagram name="PÃ¡gina-1" id="cIidLMA8d9INim1SahX7">
    <mxGraphModel dx="1691" dy="508" grid="1" gridSize="10" guides="1" tooltips="1" connect="1" arrows="1" fold="1" page="1" pageScale="1" pageWidth="827" pageHeight="1169" math="0" shadow="0">
      <root>
        <mxCell id="0" />
        <mxCell id="1" parent="0" />
        <mxCell id="-EB4jdwyLUFz9tsIEVAe-1" style="edgeStyle=orthogonalEdgeStyle;rounded=0;orthogonalLoop=1;jettySize=auto;html=1;endArrow=none;endFill=0;" edge="1" parent="1" source="-EB4jdwyLUFz9tsIEVAe-2" target="-EB4jdwyLUFz9tsIEVAe-7">
          <mxGeometry relative="1" as="geometry" />
        </mxCell>
        <mxCell id="-EB4jdwyLUFz9tsIEVAe-2" value="Institucion" style="rounded=0;whiteSpace=wrap;html=1;" vertex="1" parent="1">
          <mxGeometry x="100" y="500" width="120" height="60" as="geometry" />
        </mxCell>
        <mxCell id="-EB4jdwyLUFz9tsIEVAe-3" style="edgeStyle=orthogonalEdgeStyle;rounded=0;orthogonalLoop=1;jettySize=auto;html=1;" edge="1" parent="1" source="-EB4jdwyLUFz9tsIEVAe-7" target="-EB4jdwyLUFz9tsIEVAe-15">
          <mxGeometry relative="1" as="geometry" />
        </mxCell>
        <mxCell id="-EB4jdwyLUFz9tsIEVAe-4" style="edgeStyle=orthogonalEdgeStyle;rounded=0;orthogonalLoop=1;jettySize=auto;html=1;endArrow=none;endFill=0;" edge="1" parent="1" source="-EB4jdwyLUFz9tsIEVAe-7" target="-EB4jdwyLUFz9tsIEVAe-30">
          <mxGeometry relative="1" as="geometry" />
        </mxCell>
        <mxCell id="-EB4jdwyLUFz9tsIEVAe-5" style="edgeStyle=orthogonalEdgeStyle;rounded=0;orthogonalLoop=1;jettySize=auto;html=1;entryX=0.5;entryY=1;entryDx=0;entryDy=0;endArrow=none;endFill=0;" edge="1" parent="1" source="-EB4jdwyLUFz9tsIEVAe-7" target="-EB4jdwyLUFz9tsIEVAe-98">
          <mxGeometry relative="1" as="geometry">
            <Array as="points">
              <mxPoint x="400" y="460" />
              <mxPoint x="260" y="460" />
            </Array>
          </mxGeometry>
        </mxCell>
        <mxCell id="-EB4jdwyLUFz9tsIEVAe-6" style="edgeStyle=orthogonalEdgeStyle;rounded=0;orthogonalLoop=1;jettySize=auto;html=1;" edge="1" parent="1" source="-EB4jdwyLUFz9tsIEVAe-7" target="-EB4jdwyLUFz9tsIEVAe-120">
          <mxGeometry relative="1" as="geometry">
            <Array as="points">
              <mxPoint x="480" y="580" />
              <mxPoint x="590" y="580" />
            </Array>
          </mxGeometry>
        </mxCell>
        <mxCell id="-EB4jdwyLUFz9tsIEVAe-7" value="Computadores&lt;br&gt;" style="rounded=0;whiteSpace=wrap;html=1;" vertex="1" parent="1">
          <mxGeometry x="390" y="500" width="120" height="60" as="geometry" />
        </mxCell>
        <mxCell id="-EB4jdwyLUFz9tsIEVAe-8" value="Tiene" style="text;html=1;align=center;verticalAlign=middle;resizable=0;points=[];autosize=1;strokeColor=none;fillColor=none;" vertex="1" parent="1">
          <mxGeometry x="270" y="490" width="50" height="30" as="geometry" />
        </mxCell>
        <mxCell id="-EB4jdwyLUFz9tsIEVAe-9" value="0..*" style="text;html=1;align=center;verticalAlign=middle;resizable=0;points=[];autosize=1;strokeColor=none;fillColor=none;" vertex="1" parent="1">
          <mxGeometry x="350" y="500" width="40" height="30" as="geometry" />
        </mxCell>
        <mxCell id="-EB4jdwyLUFz9tsIEVAe-10" value="" style="endArrow=classic;html=1;rounded=0;exitX=0.031;exitY=1.071;exitDx=0;exitDy=0;exitPerimeter=0;" edge="1" parent="1" source="-EB4jdwyLUFz9tsIEVAe-8">
          <mxGeometry width="50" height="50" relative="1" as="geometry">
            <mxPoint x="460" y="560" as="sourcePoint" />
            <mxPoint x="320" y="522" as="targetPoint" />
          </mxGeometry>
        </mxCell>
        <mxCell id="-EB4jdwyLUFz9tsIEVAe-11" value="Pertenece" style="text;html=1;align=center;verticalAlign=middle;resizable=0;points=[];autosize=1;strokeColor=none;fillColor=none;" vertex="1" parent="1">
          <mxGeometry x="260" y="541" width="80" height="30" as="geometry" />
        </mxCell>
        <mxCell id="-EB4jdwyLUFz9tsIEVAe-12" value="1..1" style="text;html=1;align=center;verticalAlign=middle;resizable=0;points=[];autosize=1;strokeColor=none;fillColor=none;" vertex="1" parent="1">
          <mxGeometry x="220" y="538" width="40" height="30" as="geometry" />
        </mxCell>
        <mxCell id="-EB4jdwyLUFz9tsIEVAe-13" value="" style="endArrow=classic;html=1;rounded=0;entryX=0.14;entryY=-0.027;entryDx=0;entryDy=0;entryPerimeter=0;exitX=0.665;exitY=-0.027;exitDx=0;exitDy=0;exitPerimeter=0;" edge="1" parent="1">
          <mxGeometry width="50" height="50" relative="1" as="geometry">
            <mxPoint x="313.20000000000005" y="540.19" as="sourcePoint" />
            <mxPoint x="271.20000000000005" y="540.19" as="targetPoint" />
          </mxGeometry>
        </mxCell>
        <mxCell id="-EB4jdwyLUFz9tsIEVAe-14" style="edgeStyle=orthogonalEdgeStyle;rounded=0;orthogonalLoop=1;jettySize=auto;html=1;" edge="1" parent="1" source="-EB4jdwyLUFz9tsIEVAe-15" target="-EB4jdwyLUFz9tsIEVAe-22">
          <mxGeometry relative="1" as="geometry" />
        </mxCell>
        <mxCell id="-EB4jdwyLUFz9tsIEVAe-15" value="Ubicacion" style="rounded=0;whiteSpace=wrap;html=1;fontStyle=1" vertex="1" parent="1">
          <mxGeometry x="390" y="660" width="120" height="60" as="geometry" />
        </mxCell>
        <mxCell id="-EB4jdwyLUFz9tsIEVAe-16" value="Tiene" style="text;html=1;align=center;verticalAlign=middle;resizable=0;points=[];autosize=1;strokeColor=none;fillColor=none;" vertex="1" parent="1">
          <mxGeometry x="460" y="590" width="50" height="30" as="geometry" />
        </mxCell>
        <mxCell id="-EB4jdwyLUFz9tsIEVAe-17" value="" style="endArrow=classic;html=1;rounded=0;exitX=0.003;exitY=0.097;exitDx=0;exitDy=0;exitPerimeter=0;" edge="1" parent="1" source="-EB4jdwyLUFz9tsIEVAe-16">
          <mxGeometry width="50" height="50" relative="1" as="geometry">
            <mxPoint x="650" y="660" as="sourcePoint" />
            <mxPoint x="461" y="620" as="targetPoint" />
          </mxGeometry>
        </mxCell>
        <mxCell id="-EB4jdwyLUFz9tsIEVAe-18" value="Pertenece" style="text;html=1;align=center;verticalAlign=middle;resizable=0;points=[];autosize=1;strokeColor=none;fillColor=none;" vertex="1" parent="1">
          <mxGeometry x="360" y="590" width="80" height="30" as="geometry" />
        </mxCell>
        <mxCell id="-EB4jdwyLUFz9tsIEVAe-19" value="" style="endArrow=classic;html=1;rounded=0;" edge="1" parent="1">
          <mxGeometry width="50" height="50" relative="1" as="geometry">
            <mxPoint x="440" y="620" as="sourcePoint" />
            <mxPoint x="440" y="590" as="targetPoint" />
          </mxGeometry>
        </mxCell>
        <mxCell id="-EB4jdwyLUFz9tsIEVAe-20" value="1..1" style="text;html=1;align=center;verticalAlign=middle;resizable=0;points=[];autosize=1;strokeColor=none;fillColor=none;" vertex="1" parent="1">
          <mxGeometry x="450" y="630" width="40" height="30" as="geometry" />
        </mxCell>
        <mxCell id="-EB4jdwyLUFz9tsIEVAe-21" value="0..*" style="text;html=1;align=center;verticalAlign=middle;resizable=0;points=[];autosize=1;strokeColor=none;fillColor=none;" vertex="1" parent="1">
          <mxGeometry x="410" y="560" width="40" height="30" as="geometry" />
        </mxCell>
        <mxCell id="-EB4jdwyLUFz9tsIEVAe-22" value="TipoUbicacion" style="rounded=0;whiteSpace=wrap;html=1;" vertex="1" parent="1">
          <mxGeometry x="390" y="825" width="120" height="60" as="geometry" />
        </mxCell>
        <mxCell id="-EB4jdwyLUFz9tsIEVAe-23" value="Es" style="text;html=1;align=center;verticalAlign=middle;resizable=0;points=[];autosize=1;strokeColor=none;fillColor=none;" vertex="1" parent="1">
          <mxGeometry x="465" y="760" width="40" height="30" as="geometry" />
        </mxCell>
        <mxCell id="-EB4jdwyLUFz9tsIEVAe-24" value="" style="endArrow=classic;html=1;rounded=0;exitX=0.003;exitY=0.097;exitDx=0;exitDy=0;exitPerimeter=0;entryX=0;entryY=1;entryDx=0;entryDy=0;entryPerimeter=0;" edge="1" parent="1" source="-EB4jdwyLUFz9tsIEVAe-23" target="-EB4jdwyLUFz9tsIEVAe-23">
          <mxGeometry width="50" height="50" relative="1" as="geometry">
            <mxPoint x="650" y="830" as="sourcePoint" />
            <mxPoint x="461" y="790" as="targetPoint" />
          </mxGeometry>
        </mxCell>
        <mxCell id="-EB4jdwyLUFz9tsIEVAe-25" value="Hay" style="text;html=1;align=center;verticalAlign=middle;resizable=0;points=[];autosize=1;strokeColor=none;fillColor=none;" vertex="1" parent="1">
          <mxGeometry x="380" y="760" width="40" height="30" as="geometry" />
        </mxCell>
        <mxCell id="-EB4jdwyLUFz9tsIEVAe-26" value="" style="endArrow=classic;html=1;rounded=0;" edge="1" parent="1">
          <mxGeometry width="50" height="50" relative="1" as="geometry">
            <mxPoint x="440" y="790" as="sourcePoint" />
            <mxPoint x="440" y="760" as="targetPoint" />
          </mxGeometry>
        </mxCell>
        <mxCell id="-EB4jdwyLUFz9tsIEVAe-27" value="1..1" style="text;html=1;align=center;verticalAlign=middle;resizable=0;points=[];autosize=1;strokeColor=none;fillColor=none;" vertex="1" parent="1">
          <mxGeometry x="450" y="795" width="40" height="30" as="geometry" />
        </mxCell>
        <mxCell id="-EB4jdwyLUFz9tsIEVAe-28" value="0..*" style="text;html=1;align=center;verticalAlign=middle;resizable=0;points=[];autosize=1;strokeColor=none;fillColor=none;" vertex="1" parent="1">
          <mxGeometry x="410" y="720" width="40" height="30" as="geometry" />
        </mxCell>
        <mxCell id="-EB4jdwyLUFz9tsIEVAe-29" style="edgeStyle=orthogonalEdgeStyle;rounded=0;orthogonalLoop=1;jettySize=auto;html=1;endArrow=none;endFill=0;" edge="1" parent="1" source="-EB4jdwyLUFz9tsIEVAe-30" target="-EB4jdwyLUFz9tsIEVAe-60">
          <mxGeometry relative="1" as="geometry" />
        </mxCell>
        <mxCell id="-EB4jdwyLUFz9tsIEVAe-30" value="Periferico" style="rounded=0;whiteSpace=wrap;html=1;" vertex="1" parent="1">
          <mxGeometry x="390" y="160" width="120" height="60" as="geometry" />
        </mxCell>
        <mxCell id="-EB4jdwyLUFz9tsIEVAe-31" value="hace referencia" style="text;html=1;align=center;verticalAlign=middle;resizable=0;points=[];autosize=1;strokeColor=none;fillColor=none;" vertex="1" parent="1">
          <mxGeometry x="340" y="262" width="110" height="30" as="geometry" />
        </mxCell>
        <mxCell id="-EB4jdwyLUFz9tsIEVAe-32" value="Aparece" style="text;html=1;align=center;verticalAlign=middle;resizable=0;points=[];autosize=1;strokeColor=none;fillColor=none;" vertex="1" parent="1">
          <mxGeometry x="465" y="262" width="70" height="30" as="geometry" />
        </mxCell>
        <mxCell id="-EB4jdwyLUFz9tsIEVAe-33" value="" style="endArrow=classic;html=1;rounded=0;" edge="1" parent="1">
          <mxGeometry width="50" height="50" relative="1" as="geometry">
            <mxPoint x="440" y="290" as="sourcePoint" />
            <mxPoint x="440" y="260" as="targetPoint" />
          </mxGeometry>
        </mxCell>
        <mxCell id="-EB4jdwyLUFz9tsIEVAe-34" value="" style="endArrow=classic;html=1;rounded=0;exitX=0.003;exitY=0.097;exitDx=0;exitDy=0;exitPerimeter=0;" edge="1" parent="1">
          <mxGeometry width="50" height="50" relative="1" as="geometry">
            <mxPoint x="460" y="262" as="sourcePoint" />
            <mxPoint x="460" y="290" as="targetPoint" />
          </mxGeometry>
        </mxCell>
        <mxCell id="-EB4jdwyLUFz9tsIEVAe-35" value="1..1" style="text;html=1;align=center;verticalAlign=middle;resizable=0;points=[];autosize=1;strokeColor=none;fillColor=none;" vertex="1" parent="1">
          <mxGeometry x="410" y="220" width="40" height="30" as="geometry" />
        </mxCell>
        <mxCell id="-EB4jdwyLUFz9tsIEVAe-36" value="0..*" style="text;html=1;align=center;verticalAlign=middle;resizable=0;points=[];autosize=1;strokeColor=none;fillColor=none;" vertex="1" parent="1">
          <mxGeometry x="454" y="300" width="40" height="30" as="geometry" />
        </mxCell>
        <mxCell id="-EB4jdwyLUFz9tsIEVAe-37" value="PerifericoComputador" style="rounded=0;whiteSpace=wrap;html=1;" vertex="1" parent="1">
          <mxGeometry x="390" y="330" width="120" height="60" as="geometry" />
        </mxCell>
        <mxCell id="-EB4jdwyLUFz9tsIEVAe-38" value="Tiene" style="text;html=1;align=center;verticalAlign=middle;resizable=0;points=[];autosize=1;strokeColor=none;fillColor=none;" vertex="1" parent="1">
          <mxGeometry x="390" y="430" width="50" height="30" as="geometry" />
        </mxCell>
        <mxCell id="-EB4jdwyLUFz9tsIEVAe-39" value="Pertenece" style="text;html=1;align=center;verticalAlign=middle;resizable=0;points=[];autosize=1;strokeColor=none;fillColor=none;" vertex="1" parent="1">
          <mxGeometry x="460" y="430" width="80" height="30" as="geometry" />
        </mxCell>
        <mxCell id="-EB4jdwyLUFz9tsIEVAe-40" value="" style="endArrow=classic;html=1;rounded=0;" edge="1" parent="1">
          <mxGeometry width="50" height="50" relative="1" as="geometry">
            <mxPoint x="440" y="458" as="sourcePoint" />
            <mxPoint x="440" y="428" as="targetPoint" />
          </mxGeometry>
        </mxCell>
        <mxCell id="-EB4jdwyLUFz9tsIEVAe-41" value="" style="endArrow=classic;html=1;rounded=0;exitX=0.003;exitY=0.097;exitDx=0;exitDy=0;exitPerimeter=0;entryX=-0.002;entryY=0.963;entryDx=0;entryDy=0;entryPerimeter=0;" edge="1" parent="1" target="-EB4jdwyLUFz9tsIEVAe-39">
          <mxGeometry width="50" height="50" relative="1" as="geometry">
            <mxPoint x="460" y="430" as="sourcePoint" />
            <mxPoint x="461" y="457" as="targetPoint" />
          </mxGeometry>
        </mxCell>
        <mxCell id="-EB4jdwyLUFz9tsIEVAe-42" value="0..*" style="text;html=1;align=center;verticalAlign=middle;resizable=0;points=[];autosize=1;strokeColor=none;fillColor=none;" vertex="1" parent="1">
          <mxGeometry x="410" y="390" width="40" height="30" as="geometry" />
        </mxCell>
        <mxCell id="-EB4jdwyLUFz9tsIEVAe-43" value="1..*" style="text;html=1;align=center;verticalAlign=middle;resizable=0;points=[];autosize=1;strokeColor=none;fillColor=none;" vertex="1" parent="1">
          <mxGeometry x="450" y="470" width="40" height="30" as="geometry" />
        </mxCell>
        <mxCell id="-EB4jdwyLUFz9tsIEVAe-44" style="edgeStyle=orthogonalEdgeStyle;rounded=0;orthogonalLoop=1;jettySize=auto;html=1;endArrow=none;endFill=0;" edge="1" parent="1" source="-EB4jdwyLUFz9tsIEVAe-45" target="-EB4jdwyLUFz9tsIEVAe-30">
          <mxGeometry relative="1" as="geometry" />
        </mxCell>
        <mxCell id="-EB4jdwyLUFz9tsIEVAe-45" value="TipoPeriferico" style="rounded=0;whiteSpace=wrap;html=1;" vertex="1" parent="1">
          <mxGeometry x="-170" y="160" width="120" height="60" as="geometry" />
        </mxCell>
        <mxCell id="-EB4jdwyLUFz9tsIEVAe-46" value="Esta" style="text;html=1;align=center;verticalAlign=middle;resizable=0;points=[];autosize=1;strokeColor=none;fillColor=none;" vertex="1" parent="1">
          <mxGeometry y="149.5" width="50" height="30" as="geometry" />
        </mxCell>
        <mxCell id="-EB4jdwyLUFz9tsIEVAe-47" value="0..*" style="text;html=1;align=center;verticalAlign=middle;resizable=0;points=[];autosize=1;strokeColor=none;fillColor=none;" vertex="1" parent="1">
          <mxGeometry x="80" y="159.5" width="40" height="30" as="geometry" />
        </mxCell>
        <mxCell id="-EB4jdwyLUFz9tsIEVAe-48" value="" style="endArrow=classic;html=1;rounded=0;exitX=0.031;exitY=1.071;exitDx=0;exitDy=0;exitPerimeter=0;" edge="1" parent="1" source="-EB4jdwyLUFz9tsIEVAe-46">
          <mxGeometry width="50" height="50" relative="1" as="geometry">
            <mxPoint x="190" y="219.5" as="sourcePoint" />
            <mxPoint x="50" y="181.5" as="targetPoint" />
          </mxGeometry>
        </mxCell>
        <mxCell id="-EB4jdwyLUFz9tsIEVAe-49" value="Referencia" style="text;html=1;align=center;verticalAlign=middle;resizable=0;points=[];autosize=1;strokeColor=none;fillColor=none;" vertex="1" parent="1">
          <mxGeometry x="-15" y="200.5" width="80" height="30" as="geometry" />
        </mxCell>
        <mxCell id="-EB4jdwyLUFz9tsIEVAe-50" value="1..1" style="text;html=1;align=center;verticalAlign=middle;resizable=0;points=[];autosize=1;strokeColor=none;fillColor=none;" vertex="1" parent="1">
          <mxGeometry x="-50" y="197.5" width="40" height="30" as="geometry" />
        </mxCell>
        <mxCell id="-EB4jdwyLUFz9tsIEVAe-51" value="" style="endArrow=classic;html=1;rounded=0;entryX=0.14;entryY=-0.027;entryDx=0;entryDy=0;entryPerimeter=0;exitX=0.665;exitY=-0.027;exitDx=0;exitDy=0;exitPerimeter=0;" edge="1" parent="1">
          <mxGeometry width="50" height="50" relative="1" as="geometry">
            <mxPoint x="43.200000000000045" y="199.69000000000005" as="sourcePoint" />
            <mxPoint x="1.2000000000000455" y="199.69000000000005" as="targetPoint" />
          </mxGeometry>
        </mxCell>
        <mxCell id="-EB4jdwyLUFz9tsIEVAe-52" value="Caracterizacion&lt;br&gt;TipoPeriferico" style="rounded=0;whiteSpace=wrap;html=1;" vertex="1" parent="1">
          <mxGeometry x="120" y="164.75" width="100" height="50.5" as="geometry" />
        </mxCell>
        <mxCell id="-EB4jdwyLUFz9tsIEVAe-53" value="Referencia" style="text;html=1;align=center;verticalAlign=middle;resizable=0;points=[];autosize=1;strokeColor=none;fillColor=none;" vertex="1" parent="1">
          <mxGeometry x="255" y="146.5" width="80" height="30" as="geometry" />
        </mxCell>
        <mxCell id="-EB4jdwyLUFz9tsIEVAe-54" value="1..1" style="text;html=1;align=center;verticalAlign=middle;resizable=0;points=[];autosize=1;strokeColor=none;fillColor=none;" vertex="1" parent="1">
          <mxGeometry x="350" y="156.5" width="40" height="30" as="geometry" />
        </mxCell>
        <mxCell id="-EB4jdwyLUFz9tsIEVAe-55" value="" style="endArrow=classic;html=1;rounded=0;exitX=0.031;exitY=1.071;exitDx=0;exitDy=0;exitPerimeter=0;" edge="1" parent="1" source="-EB4jdwyLUFz9tsIEVAe-53">
          <mxGeometry width="50" height="50" relative="1" as="geometry">
            <mxPoint x="460" y="216.5" as="sourcePoint" />
            <mxPoint x="320" y="178.5" as="targetPoint" />
          </mxGeometry>
        </mxCell>
        <mxCell id="-EB4jdwyLUFz9tsIEVAe-56" value="Es" style="text;html=1;align=center;verticalAlign=middle;resizable=0;points=[];autosize=1;strokeColor=none;fillColor=none;" vertex="1" parent="1">
          <mxGeometry x="280" y="197.5" width="40" height="30" as="geometry" />
        </mxCell>
        <mxCell id="-EB4jdwyLUFz9tsIEVAe-57" value="1..*" style="text;html=1;align=center;verticalAlign=middle;resizable=0;points=[];autosize=1;strokeColor=none;fillColor=none;" vertex="1" parent="1">
          <mxGeometry x="220" y="194.5" width="40" height="30" as="geometry" />
        </mxCell>
        <mxCell id="-EB4jdwyLUFz9tsIEVAe-58" value="" style="endArrow=classic;html=1;rounded=0;entryX=0.14;entryY=-0.027;entryDx=0;entryDy=0;entryPerimeter=0;exitX=0.665;exitY=-0.027;exitDx=0;exitDy=0;exitPerimeter=0;" edge="1" parent="1">
          <mxGeometry width="50" height="50" relative="1" as="geometry">
            <mxPoint x="313.20000000000005" y="196.69000000000005" as="sourcePoint" />
            <mxPoint x="271.20000000000005" y="196.69000000000005" as="targetPoint" />
          </mxGeometry>
        </mxCell>
        <mxCell id="-EB4jdwyLUFz9tsIEVAe-59" style="edgeStyle=orthogonalEdgeStyle;rounded=0;orthogonalLoop=1;jettySize=auto;html=1;entryX=0.5;entryY=0;entryDx=0;entryDy=0;endArrow=none;endFill=0;" edge="1" parent="1" source="-EB4jdwyLUFz9tsIEVAe-60" target="-EB4jdwyLUFz9tsIEVAe-62">
          <mxGeometry relative="1" as="geometry" />
        </mxCell>
        <mxCell id="-EB4jdwyLUFz9tsIEVAe-60" value="Fabricante" style="rounded=0;whiteSpace=wrap;html=1;" vertex="1" parent="1">
          <mxGeometry x="670" y="159.5" width="120" height="60" as="geometry" />
        </mxCell>
        <mxCell id="-EB4jdwyLUFz9tsIEVAe-61" style="edgeStyle=orthogonalEdgeStyle;rounded=0;orthogonalLoop=1;jettySize=auto;html=1;endArrow=none;endFill=0;" edge="1" parent="1" source="-EB4jdwyLUFz9tsIEVAe-62" target="-EB4jdwyLUFz9tsIEVAe-65">
          <mxGeometry relative="1" as="geometry" />
        </mxCell>
        <mxCell id="-EB4jdwyLUFz9tsIEVAe-62" value="Marca" style="rounded=0;whiteSpace=wrap;html=1;" vertex="1" parent="1">
          <mxGeometry x="670" y="332" width="120" height="60" as="geometry" />
        </mxCell>
        <mxCell id="-EB4jdwyLUFz9tsIEVAe-63" style="edgeStyle=orthogonalEdgeStyle;rounded=0;orthogonalLoop=1;jettySize=auto;html=1;endArrow=none;endFill=0;" edge="1" parent="1" source="-EB4jdwyLUFz9tsIEVAe-65" target="-EB4jdwyLUFz9tsIEVAe-7">
          <mxGeometry relative="1" as="geometry" />
        </mxCell>
        <mxCell id="-EB4jdwyLUFz9tsIEVAe-64" style="edgeStyle=orthogonalEdgeStyle;rounded=0;orthogonalLoop=1;jettySize=auto;html=1;endArrow=none;endFill=0;" edge="1" parent="1" source="-EB4jdwyLUFz9tsIEVAe-65" target="-EB4jdwyLUFz9tsIEVAe-90">
          <mxGeometry relative="1" as="geometry" />
        </mxCell>
        <mxCell id="-EB4jdwyLUFz9tsIEVAe-65" value="Serie" style="rounded=0;whiteSpace=wrap;html=1;" vertex="1" parent="1">
          <mxGeometry x="670" y="500" width="120" height="60" as="geometry" />
        </mxCell>
        <mxCell id="-EB4jdwyLUFz9tsIEVAe-66" value="Fabricante" style="text;html=1;align=center;verticalAlign=middle;resizable=0;points=[];autosize=1;strokeColor=none;fillColor=none;" vertex="1" parent="1">
          <mxGeometry x="545" y="146.5" width="80" height="30" as="geometry" />
        </mxCell>
        <mxCell id="-EB4jdwyLUFz9tsIEVAe-67" value="1..1" style="text;html=1;align=center;verticalAlign=middle;resizable=0;points=[];autosize=1;strokeColor=none;fillColor=none;" vertex="1" parent="1">
          <mxGeometry x="630" y="156.5" width="40" height="30" as="geometry" />
        </mxCell>
        <mxCell id="-EB4jdwyLUFz9tsIEVAe-68" value="" style="endArrow=classic;html=1;rounded=0;exitX=0.031;exitY=1.071;exitDx=0;exitDy=0;exitPerimeter=0;" edge="1" parent="1" source="-EB4jdwyLUFz9tsIEVAe-66">
          <mxGeometry width="50" height="50" relative="1" as="geometry">
            <mxPoint x="750" y="216.5" as="sourcePoint" />
            <mxPoint x="610" y="178.5" as="targetPoint" />
          </mxGeometry>
        </mxCell>
        <mxCell id="-EB4jdwyLUFz9tsIEVAe-69" value="Fabrica" style="text;html=1;align=center;verticalAlign=middle;resizable=0;points=[];autosize=1;strokeColor=none;fillColor=none;" vertex="1" parent="1">
          <mxGeometry x="560" y="197.5" width="60" height="30" as="geometry" />
        </mxCell>
        <mxCell id="-EB4jdwyLUFz9tsIEVAe-70" value="0..*" style="text;html=1;align=center;verticalAlign=middle;resizable=0;points=[];autosize=1;strokeColor=none;fillColor=none;" vertex="1" parent="1">
          <mxGeometry x="510" y="194.5" width="40" height="30" as="geometry" />
        </mxCell>
        <mxCell id="-EB4jdwyLUFz9tsIEVAe-71" value="" style="endArrow=classic;html=1;rounded=0;entryX=0.14;entryY=-0.027;entryDx=0;entryDy=0;entryPerimeter=0;exitX=0.665;exitY=-0.027;exitDx=0;exitDy=0;exitPerimeter=0;" edge="1" parent="1">
          <mxGeometry width="50" height="50" relative="1" as="geometry">
            <mxPoint x="603.2" y="196.69000000000005" as="sourcePoint" />
            <mxPoint x="561.2" y="196.69000000000005" as="targetPoint" />
          </mxGeometry>
        </mxCell>
        <mxCell id="-EB4jdwyLUFz9tsIEVAe-72" value="Pertenece" style="text;html=1;align=center;verticalAlign=middle;resizable=0;points=[];autosize=1;strokeColor=none;fillColor=none;" vertex="1" parent="1">
          <mxGeometry x="635" y="264" width="80" height="30" as="geometry" />
        </mxCell>
        <mxCell id="-EB4jdwyLUFz9tsIEVAe-73" value="Tiene" style="text;html=1;align=center;verticalAlign=middle;resizable=0;points=[];autosize=1;strokeColor=none;fillColor=none;" vertex="1" parent="1">
          <mxGeometry x="755" y="264" width="50" height="30" as="geometry" />
        </mxCell>
        <mxCell id="-EB4jdwyLUFz9tsIEVAe-74" value="" style="endArrow=classic;html=1;rounded=0;" edge="1" parent="1">
          <mxGeometry width="50" height="50" relative="1" as="geometry">
            <mxPoint x="720" y="292" as="sourcePoint" />
            <mxPoint x="720" y="262" as="targetPoint" />
          </mxGeometry>
        </mxCell>
        <mxCell id="-EB4jdwyLUFz9tsIEVAe-75" value="" style="endArrow=classic;html=1;rounded=0;exitX=0.003;exitY=0.097;exitDx=0;exitDy=0;exitPerimeter=0;" edge="1" parent="1">
          <mxGeometry width="50" height="50" relative="1" as="geometry">
            <mxPoint x="740" y="264" as="sourcePoint" />
            <mxPoint x="740" y="292" as="targetPoint" />
          </mxGeometry>
        </mxCell>
        <mxCell id="-EB4jdwyLUFz9tsIEVAe-76" value="1..1" style="text;html=1;align=center;verticalAlign=middle;resizable=0;points=[];autosize=1;strokeColor=none;fillColor=none;" vertex="1" parent="1">
          <mxGeometry x="690" y="222" width="40" height="30" as="geometry" />
        </mxCell>
        <mxCell id="-EB4jdwyLUFz9tsIEVAe-77" value="1..*" style="text;html=1;align=center;verticalAlign=middle;resizable=0;points=[];autosize=1;strokeColor=none;fillColor=none;" vertex="1" parent="1">
          <mxGeometry x="734" y="302" width="40" height="30" as="geometry" />
        </mxCell>
        <mxCell id="-EB4jdwyLUFz9tsIEVAe-78" value="Pertenece" style="text;html=1;align=center;verticalAlign=middle;resizable=0;points=[];autosize=1;strokeColor=none;fillColor=none;" vertex="1" parent="1">
          <mxGeometry x="635" y="431" width="80" height="30" as="geometry" />
        </mxCell>
        <mxCell id="-EB4jdwyLUFz9tsIEVAe-79" value="Tiene" style="text;html=1;align=center;verticalAlign=middle;resizable=0;points=[];autosize=1;strokeColor=none;fillColor=none;" vertex="1" parent="1">
          <mxGeometry x="755" y="431" width="50" height="30" as="geometry" />
        </mxCell>
        <mxCell id="-EB4jdwyLUFz9tsIEVAe-80" value="" style="endArrow=classic;html=1;rounded=0;" edge="1" parent="1">
          <mxGeometry width="50" height="50" relative="1" as="geometry">
            <mxPoint x="720" y="459" as="sourcePoint" />
            <mxPoint x="720" y="429" as="targetPoint" />
          </mxGeometry>
        </mxCell>
        <mxCell id="-EB4jdwyLUFz9tsIEVAe-81" value="" style="endArrow=classic;html=1;rounded=0;exitX=0.003;exitY=0.097;exitDx=0;exitDy=0;exitPerimeter=0;" edge="1" parent="1">
          <mxGeometry width="50" height="50" relative="1" as="geometry">
            <mxPoint x="740" y="431" as="sourcePoint" />
            <mxPoint x="740" y="459" as="targetPoint" />
          </mxGeometry>
        </mxCell>
        <mxCell id="-EB4jdwyLUFz9tsIEVAe-82" value="1..1" style="text;html=1;align=center;verticalAlign=middle;resizable=0;points=[];autosize=1;strokeColor=none;fillColor=none;" vertex="1" parent="1">
          <mxGeometry x="685" y="390" width="40" height="30" as="geometry" />
        </mxCell>
        <mxCell id="-EB4jdwyLUFz9tsIEVAe-83" value="1..*" style="text;html=1;align=center;verticalAlign=middle;resizable=0;points=[];autosize=1;strokeColor=none;fillColor=none;" vertex="1" parent="1">
          <mxGeometry x="729" y="470" width="40" height="30" as="geometry" />
        </mxCell>
        <mxCell id="-EB4jdwyLUFz9tsIEVAe-84" value="Es" style="text;html=1;align=center;verticalAlign=middle;resizable=0;points=[];autosize=1;strokeColor=none;fillColor=none;" vertex="1" parent="1">
          <mxGeometry x="565" y="487" width="40" height="30" as="geometry" />
        </mxCell>
        <mxCell id="-EB4jdwyLUFz9tsIEVAe-85" value="1..1" style="text;html=1;align=center;verticalAlign=middle;resizable=0;points=[];autosize=1;strokeColor=none;fillColor=none;" vertex="1" parent="1">
          <mxGeometry x="630" y="505" width="40" height="30" as="geometry" />
        </mxCell>
        <mxCell id="-EB4jdwyLUFz9tsIEVAe-86" value="" style="endArrow=classic;html=1;rounded=0;exitX=0.031;exitY=1.071;exitDx=0;exitDy=0;exitPerimeter=0;" edge="1" parent="1" source="-EB4jdwyLUFz9tsIEVAe-84">
          <mxGeometry width="50" height="50" relative="1" as="geometry">
            <mxPoint x="750" y="557" as="sourcePoint" />
            <mxPoint x="610" y="519" as="targetPoint" />
          </mxGeometry>
        </mxCell>
        <mxCell id="-EB4jdwyLUFz9tsIEVAe-87" value="existen" style="text;html=1;align=center;verticalAlign=middle;resizable=0;points=[];autosize=1;strokeColor=none;fillColor=none;" vertex="1" parent="1">
          <mxGeometry x="560" y="538" width="60" height="30" as="geometry" />
        </mxCell>
        <mxCell id="-EB4jdwyLUFz9tsIEVAe-88" value="0..*" style="text;html=1;align=center;verticalAlign=middle;resizable=0;points=[];autosize=1;strokeColor=none;fillColor=none;" vertex="1" parent="1">
          <mxGeometry x="510" y="535" width="40" height="30" as="geometry" />
        </mxCell>
        <mxCell id="-EB4jdwyLUFz9tsIEVAe-89" value="" style="endArrow=classic;html=1;rounded=0;entryX=0.14;entryY=-0.027;entryDx=0;entryDy=0;entryPerimeter=0;exitX=0.665;exitY=-0.027;exitDx=0;exitDy=0;exitPerimeter=0;" edge="1" parent="1">
          <mxGeometry width="50" height="50" relative="1" as="geometry">
            <mxPoint x="603.2" y="537.19" as="sourcePoint" />
            <mxPoint x="561.2" y="537.19" as="targetPoint" />
          </mxGeometry>
        </mxCell>
        <mxCell id="-EB4jdwyLUFz9tsIEVAe-90" value="TipoComputadora" style="rounded=0;whiteSpace=wrap;html=1;" vertex="1" parent="1">
          <mxGeometry x="670" y="680" width="120" height="60" as="geometry" />
        </mxCell>
        <mxCell id="-EB4jdwyLUFz9tsIEVAe-91" value="Pertenece" style="text;html=1;align=center;verticalAlign=middle;resizable=0;points=[];autosize=1;strokeColor=none;fillColor=none;" vertex="1" parent="1">
          <mxGeometry x="635" y="606" width="80" height="30" as="geometry" />
        </mxCell>
        <mxCell id="-EB4jdwyLUFz9tsIEVAe-92" value="Tiene" style="text;html=1;align=center;verticalAlign=middle;resizable=0;points=[];autosize=1;strokeColor=none;fillColor=none;" vertex="1" parent="1">
          <mxGeometry x="755" y="606" width="50" height="30" as="geometry" />
        </mxCell>
        <mxCell id="-EB4jdwyLUFz9tsIEVAe-93" value="" style="endArrow=classic;html=1;rounded=0;" edge="1" parent="1">
          <mxGeometry width="50" height="50" relative="1" as="geometry">
            <mxPoint x="720" y="634" as="sourcePoint" />
            <mxPoint x="720" y="604" as="targetPoint" />
          </mxGeometry>
        </mxCell>
        <mxCell id="-EB4jdwyLUFz9tsIEVAe-94" value="" style="endArrow=classic;html=1;rounded=0;exitX=0.003;exitY=0.097;exitDx=0;exitDy=0;exitPerimeter=0;" edge="1" parent="1">
          <mxGeometry width="50" height="50" relative="1" as="geometry">
            <mxPoint x="740" y="606" as="sourcePoint" />
            <mxPoint x="740" y="634" as="targetPoint" />
          </mxGeometry>
        </mxCell>
        <mxCell id="-EB4jdwyLUFz9tsIEVAe-95" value="1..1" style="text;html=1;align=center;verticalAlign=middle;resizable=0;points=[];autosize=1;strokeColor=none;fillColor=none;" vertex="1" parent="1">
          <mxGeometry x="685" y="565" width="40" height="30" as="geometry" />
        </mxCell>
        <mxCell id="-EB4jdwyLUFz9tsIEVAe-96" value="1..*" style="text;html=1;align=center;verticalAlign=middle;resizable=0;points=[];autosize=1;strokeColor=none;fillColor=none;" vertex="1" parent="1">
          <mxGeometry x="729" y="645" width="40" height="30" as="geometry" />
        </mxCell>
        <mxCell id="-EB4jdwyLUFz9tsIEVAe-97" style="edgeStyle=orthogonalEdgeStyle;rounded=0;orthogonalLoop=1;jettySize=auto;html=1;entryX=1;entryY=0.5;entryDx=0;entryDy=0;endArrow=none;endFill=0;" edge="1" parent="1" source="-EB4jdwyLUFz9tsIEVAe-98" target="-EB4jdwyLUFz9tsIEVAe-100">
          <mxGeometry relative="1" as="geometry" />
        </mxCell>
        <mxCell id="-EB4jdwyLUFz9tsIEVAe-98" value="AccesorioComputador" style="rounded=0;whiteSpace=wrap;html=1;" vertex="1" parent="1">
          <mxGeometry x="200" y="332" width="120" height="60" as="geometry" />
        </mxCell>
        <mxCell id="-EB4jdwyLUFz9tsIEVAe-99" style="edgeStyle=orthogonalEdgeStyle;rounded=0;orthogonalLoop=1;jettySize=auto;html=1;entryX=0.5;entryY=0;entryDx=0;entryDy=0;" edge="1" parent="1" source="-EB4jdwyLUFz9tsIEVAe-100" target="-EB4jdwyLUFz9tsIEVAe-60">
          <mxGeometry relative="1" as="geometry">
            <Array as="points">
              <mxPoint x="-210" y="362" />
              <mxPoint x="-210" y="90" />
              <mxPoint x="730" y="90" />
            </Array>
          </mxGeometry>
        </mxCell>
        <mxCell id="-EB4jdwyLUFz9tsIEVAe-100" value="Accesorio" style="rounded=0;whiteSpace=wrap;html=1;" vertex="1" parent="1">
          <mxGeometry x="-100" y="332" width="120" height="60" as="geometry" />
        </mxCell>
        <mxCell id="-EB4jdwyLUFz9tsIEVAe-101" value="Esta" style="text;html=1;align=center;verticalAlign=middle;resizable=0;points=[];autosize=1;strokeColor=none;fillColor=none;" vertex="1" parent="1">
          <mxGeometry x="80" y="321.5" width="50" height="30" as="geometry" />
        </mxCell>
        <mxCell id="-EB4jdwyLUFz9tsIEVAe-102" value="0..*" style="text;html=1;align=center;verticalAlign=middle;resizable=0;points=[];autosize=1;strokeColor=none;fillColor=none;" vertex="1" parent="1">
          <mxGeometry x="160" y="331.5" width="40" height="30" as="geometry" />
        </mxCell>
        <mxCell id="-EB4jdwyLUFz9tsIEVAe-103" value="" style="endArrow=classic;html=1;rounded=0;exitX=0.031;exitY=1.071;exitDx=0;exitDy=0;exitPerimeter=0;" edge="1" parent="1" source="-EB4jdwyLUFz9tsIEVAe-101">
          <mxGeometry width="50" height="50" relative="1" as="geometry">
            <mxPoint x="270" y="391.5" as="sourcePoint" />
            <mxPoint x="130" y="353.5" as="targetPoint" />
          </mxGeometry>
        </mxCell>
        <mxCell id="-EB4jdwyLUFz9tsIEVAe-104" value="Referencia" style="text;html=1;align=center;verticalAlign=middle;resizable=0;points=[];autosize=1;strokeColor=none;fillColor=none;" vertex="1" parent="1">
          <mxGeometry x="65" y="372.5" width="80" height="30" as="geometry" />
        </mxCell>
        <mxCell id="-EB4jdwyLUFz9tsIEVAe-105" value="1..1" style="text;html=1;align=center;verticalAlign=middle;resizable=0;points=[];autosize=1;strokeColor=none;fillColor=none;" vertex="1" parent="1">
          <mxGeometry x="30" y="369.5" width="40" height="30" as="geometry" />
        </mxCell>
        <mxCell id="-EB4jdwyLUFz9tsIEVAe-106" value="" style="endArrow=classic;html=1;rounded=0;entryX=0.14;entryY=-0.027;entryDx=0;entryDy=0;entryPerimeter=0;exitX=0.665;exitY=-0.027;exitDx=0;exitDy=0;exitPerimeter=0;" edge="1" parent="1">
          <mxGeometry width="50" height="50" relative="1" as="geometry">
            <mxPoint x="123.20000000000005" y="371.69000000000005" as="sourcePoint" />
            <mxPoint x="81.20000000000005" y="371.69000000000005" as="targetPoint" />
          </mxGeometry>
        </mxCell>
        <mxCell id="-EB4jdwyLUFz9tsIEVAe-107" value="Pertenece" style="text;html=1;align=center;verticalAlign=middle;resizable=0;points=[];autosize=1;strokeColor=none;fillColor=none;" vertex="1" parent="1">
          <mxGeometry x="265" y="419" width="80" height="30" as="geometry" />
        </mxCell>
        <mxCell id="-EB4jdwyLUFz9tsIEVAe-108" value="0..*" style="text;html=1;align=center;verticalAlign=middle;resizable=0;points=[];autosize=1;strokeColor=none;fillColor=none;" vertex="1" parent="1">
          <mxGeometry x="370" y="470" width="40" height="30" as="geometry" />
        </mxCell>
        <mxCell id="-EB4jdwyLUFz9tsIEVAe-109" value="" style="endArrow=classic;html=1;rounded=0;exitX=0.031;exitY=1.071;exitDx=0;exitDy=0;exitPerimeter=0;" edge="1" parent="1" source="-EB4jdwyLUFz9tsIEVAe-107">
          <mxGeometry width="50" height="50" relative="1" as="geometry">
            <mxPoint x="470" y="489" as="sourcePoint" />
            <mxPoint x="330" y="451" as="targetPoint" />
          </mxGeometry>
        </mxCell>
        <mxCell id="-EB4jdwyLUFz9tsIEVAe-110" value="Tiene" style="text;html=1;align=center;verticalAlign=middle;resizable=0;points=[];autosize=1;strokeColor=none;fillColor=none;" vertex="1" parent="1">
          <mxGeometry x="280" y="470" width="50" height="30" as="geometry" />
        </mxCell>
        <mxCell id="-EB4jdwyLUFz9tsIEVAe-111" value="1..1" style="text;html=1;align=center;verticalAlign=middle;resizable=0;points=[];autosize=1;strokeColor=none;fillColor=none;" vertex="1" parent="1">
          <mxGeometry x="220" y="392" width="40" height="30" as="geometry" />
        </mxCell>
        <mxCell id="-EB4jdwyLUFz9tsIEVAe-112" value="" style="endArrow=classic;html=1;rounded=0;entryX=0.14;entryY=-0.027;entryDx=0;entryDy=0;entryPerimeter=0;exitX=0.665;exitY=-0.027;exitDx=0;exitDy=0;exitPerimeter=0;" edge="1" parent="1">
          <mxGeometry width="50" height="50" relative="1" as="geometry">
            <mxPoint x="323.20000000000005" y="469.19000000000005" as="sourcePoint" />
            <mxPoint x="281.20000000000005" y="469.19000000000005" as="targetPoint" />
          </mxGeometry>
        </mxCell>
        <mxCell id="-EB4jdwyLUFz9tsIEVAe-113" value="Pertenece" style="text;html=1;align=center;verticalAlign=middle;resizable=0;points=[];autosize=1;strokeColor=none;fillColor=none;" vertex="1" parent="1">
          <mxGeometry x="225" y="50" width="80" height="30" as="geometry" />
        </mxCell>
        <mxCell id="-EB4jdwyLUFz9tsIEVAe-114" value="1..*" style="text;html=1;align=center;verticalAlign=middle;resizable=0;points=[];autosize=1;strokeColor=none;fillColor=none;" vertex="1" parent="1">
          <mxGeometry x="734" y="129.5" width="40" height="30" as="geometry" />
        </mxCell>
        <mxCell id="-EB4jdwyLUFz9tsIEVAe-115" value="" style="endArrow=classic;html=1;rounded=0;exitX=0.031;exitY=1.071;exitDx=0;exitDy=0;exitPerimeter=0;" edge="1" parent="1" source="-EB4jdwyLUFz9tsIEVAe-113">
          <mxGeometry width="50" height="50" relative="1" as="geometry">
            <mxPoint x="430" y="120" as="sourcePoint" />
            <mxPoint x="290" y="82" as="targetPoint" />
          </mxGeometry>
        </mxCell>
        <mxCell id="-EB4jdwyLUFz9tsIEVAe-116" value="Tiene" style="text;html=1;align=center;verticalAlign=middle;resizable=0;points=[];autosize=1;strokeColor=none;fillColor=none;" vertex="1" parent="1">
          <mxGeometry x="245" y="101" width="50" height="30" as="geometry" />
        </mxCell>
        <mxCell id="-EB4jdwyLUFz9tsIEVAe-117" value="" style="endArrow=classic;html=1;rounded=0;exitX=0.665;exitY=-0.027;exitDx=0;exitDy=0;exitPerimeter=0;" edge="1" parent="1">
          <mxGeometry width="50" height="50" relative="1" as="geometry">
            <mxPoint x="283.20000000000005" y="100.19000000000005" as="sourcePoint" />
            <mxPoint x="230" y="100" as="targetPoint" />
          </mxGeometry>
        </mxCell>
        <mxCell id="-EB4jdwyLUFz9tsIEVAe-118" value="0..*" style="text;html=1;align=center;verticalAlign=middle;resizable=0;points=[];autosize=1;strokeColor=none;fillColor=none;" vertex="1" parent="1">
          <mxGeometry x="-150" y="362" width="40" height="30" as="geometry" />
        </mxCell>
        <mxCell id="-EB4jdwyLUFz9tsIEVAe-119" style="edgeStyle=orthogonalEdgeStyle;rounded=0;orthogonalLoop=1;jettySize=auto;html=1;endArrow=none;endFill=0;" edge="1" parent="1" source="-EB4jdwyLUFz9tsIEVAe-120" target="-EB4jdwyLUFz9tsIEVAe-128">
          <mxGeometry relative="1" as="geometry" />
        </mxCell>
        <mxCell id="-EB4jdwyLUFz9tsIEVAe-120" value="HistorialEstado" style="rounded=0;whiteSpace=wrap;html=1;" vertex="1" parent="1">
          <mxGeometry x="530" y="700" width="120" height="60" as="geometry" />
        </mxCell>
        <mxCell id="-EB4jdwyLUFz9tsIEVAe-121" value="Pertenece" style="text;html=1;align=center;verticalAlign=middle;resizable=0;points=[];autosize=1;strokeColor=none;fillColor=none;" vertex="1" parent="1">
          <mxGeometry x="500" y="631" width="80" height="30" as="geometry" />
        </mxCell>
        <mxCell id="-EB4jdwyLUFz9tsIEVAe-122" value="Tiene" style="text;html=1;align=center;verticalAlign=middle;resizable=0;points=[];autosize=1;strokeColor=none;fillColor=none;" vertex="1" parent="1">
          <mxGeometry x="620" y="631" width="50" height="30" as="geometry" />
        </mxCell>
        <mxCell id="-EB4jdwyLUFz9tsIEVAe-123" value="" style="endArrow=classic;html=1;rounded=0;" edge="1" parent="1">
          <mxGeometry width="50" height="50" relative="1" as="geometry">
            <mxPoint x="585" y="659" as="sourcePoint" />
            <mxPoint x="585" y="629" as="targetPoint" />
          </mxGeometry>
        </mxCell>
        <mxCell id="-EB4jdwyLUFz9tsIEVAe-124" value="" style="endArrow=classic;html=1;rounded=0;exitX=0.003;exitY=0.097;exitDx=0;exitDy=0;exitPerimeter=0;" edge="1" parent="1">
          <mxGeometry width="50" height="50" relative="1" as="geometry">
            <mxPoint x="605" y="631" as="sourcePoint" />
            <mxPoint x="605" y="659" as="targetPoint" />
          </mxGeometry>
        </mxCell>
        <mxCell id="-EB4jdwyLUFz9tsIEVAe-125" value="1..1" style="text;html=1;align=center;verticalAlign=middle;resizable=0;points=[];autosize=1;strokeColor=none;fillColor=none;" vertex="1" parent="1">
          <mxGeometry x="480" y="560" width="40" height="30" as="geometry" />
        </mxCell>
        <mxCell id="-EB4jdwyLUFz9tsIEVAe-126" value="1..*" style="text;html=1;align=center;verticalAlign=middle;resizable=0;points=[];autosize=1;strokeColor=none;fillColor=none;" vertex="1" parent="1">
          <mxGeometry x="594" y="670" width="40" height="30" as="geometry" />
        </mxCell>
        <mxCell id="-EB4jdwyLUFz9tsIEVAe-127" style="edgeStyle=orthogonalEdgeStyle;rounded=0;orthogonalLoop=1;jettySize=auto;html=1;endArrow=none;endFill=0;exitX=1;exitY=0.5;exitDx=0;exitDy=0;" edge="1" parent="1" source="-EB4jdwyLUFz9tsIEVAe-120" target="-EB4jdwyLUFz9tsIEVAe-136">
          <mxGeometry relative="1" as="geometry">
            <Array as="points">
              <mxPoint x="650" y="750" />
              <mxPoint x="680" y="750" />
              <mxPoint x="680" y="900" />
            </Array>
          </mxGeometry>
        </mxCell>
        <mxCell id="-EB4jdwyLUFz9tsIEVAe-128" value="Estado" style="rounded=0;whiteSpace=wrap;html=1;" vertex="1" parent="1">
          <mxGeometry x="530" y="870" width="120" height="60" as="geometry" />
        </mxCell>
        <mxCell id="-EB4jdwyLUFz9tsIEVAe-129" value="Esta" style="text;html=1;align=center;verticalAlign=middle;resizable=0;points=[];autosize=1;strokeColor=none;fillColor=none;" vertex="1" parent="1">
          <mxGeometry x="527" y="801" width="50" height="30" as="geometry" />
        </mxCell>
        <mxCell id="-EB4jdwyLUFz9tsIEVAe-130" value="Pertenece" style="text;html=1;align=center;verticalAlign=middle;resizable=0;points=[];autosize=1;strokeColor=none;fillColor=none;" vertex="1" parent="1">
          <mxGeometry x="595" y="801" width="80" height="30" as="geometry" />
        </mxCell>
        <mxCell id="-EB4jdwyLUFz9tsIEVAe-131" value="" style="endArrow=classic;html=1;rounded=0;" edge="1" parent="1">
          <mxGeometry width="50" height="50" relative="1" as="geometry">
            <mxPoint x="575" y="829" as="sourcePoint" />
            <mxPoint x="575" y="799" as="targetPoint" />
          </mxGeometry>
        </mxCell>
        <mxCell id="-EB4jdwyLUFz9tsIEVAe-132" value="" style="endArrow=classic;html=1;rounded=0;exitX=0.003;exitY=0.097;exitDx=0;exitDy=0;exitPerimeter=0;" edge="1" parent="1">
          <mxGeometry width="50" height="50" relative="1" as="geometry">
            <mxPoint x="595" y="801" as="sourcePoint" />
            <mxPoint x="595" y="829" as="targetPoint" />
          </mxGeometry>
        </mxCell>
        <mxCell id="-EB4jdwyLUFz9tsIEVAe-133" value="1..1" style="text;html=1;align=center;verticalAlign=middle;resizable=0;points=[];autosize=1;strokeColor=none;fillColor=none;" vertex="1" parent="1">
          <mxGeometry x="540" y="760" width="40" height="30" as="geometry" />
        </mxCell>
        <mxCell id="-EB4jdwyLUFz9tsIEVAe-134" value="1..*" style="text;html=1;align=center;verticalAlign=middle;resizable=0;points=[];autosize=1;strokeColor=none;fillColor=none;" vertex="1" parent="1">
          <mxGeometry x="584" y="840" width="40" height="30" as="geometry" />
        </mxCell>
        <mxCell id="-EB4jdwyLUFz9tsIEVAe-135" style="edgeStyle=orthogonalEdgeStyle;rounded=0;orthogonalLoop=1;jettySize=auto;html=1;endArrow=none;endFill=0;" edge="1" parent="1" source="-EB4jdwyLUFz9tsIEVAe-136" target="-EB4jdwyLUFz9tsIEVAe-143">
          <mxGeometry relative="1" as="geometry" />
        </mxCell>
        <mxCell id="-EB4jdwyLUFz9tsIEVAe-136" value="Mantenimiento" style="rounded=0;whiteSpace=wrap;html=1;" vertex="1" parent="1">
          <mxGeometry x="820" y="865" width="140" height="70" as="geometry" />
        </mxCell>
        <mxCell id="-EB4jdwyLUFz9tsIEVAe-137" value="Tiene" style="text;html=1;align=center;verticalAlign=middle;resizable=0;points=[];autosize=1;strokeColor=none;fillColor=none;" vertex="1" parent="1">
          <mxGeometry x="700" y="859.5" width="50" height="30" as="geometry" />
        </mxCell>
        <mxCell id="-EB4jdwyLUFz9tsIEVAe-138" value="0..*" style="text;html=1;align=center;verticalAlign=middle;resizable=0;points=[];autosize=1;strokeColor=none;fillColor=none;" vertex="1" parent="1">
          <mxGeometry x="780" y="869.5" width="40" height="30" as="geometry" />
        </mxCell>
        <mxCell id="-EB4jdwyLUFz9tsIEVAe-139" value="" style="endArrow=classic;html=1;rounded=0;exitX=0.031;exitY=1.071;exitDx=0;exitDy=0;exitPerimeter=0;" edge="1" parent="1" source="-EB4jdwyLUFz9tsIEVAe-137">
          <mxGeometry width="50" height="50" relative="1" as="geometry">
            <mxPoint x="890" y="929.5" as="sourcePoint" />
            <mxPoint x="750" y="891.5" as="targetPoint" />
          </mxGeometry>
        </mxCell>
        <mxCell id="-EB4jdwyLUFz9tsIEVAe-140" value="Esta Asociado&lt;br&gt;" style="text;html=1;align=center;verticalAlign=middle;resizable=0;points=[];autosize=1;strokeColor=none;fillColor=none;" vertex="1" parent="1">
          <mxGeometry x="680" y="910.5" width="100" height="30" as="geometry" />
        </mxCell>
        <mxCell id="-EB4jdwyLUFz9tsIEVAe-141" value="1..1" style="text;html=1;align=center;verticalAlign=middle;resizable=0;points=[];autosize=1;strokeColor=none;fillColor=none;" vertex="1" parent="1">
          <mxGeometry x="630" y="760" width="40" height="30" as="geometry" />
        </mxCell>
        <mxCell id="-EB4jdwyLUFz9tsIEVAe-142" value="" style="endArrow=classic;html=1;rounded=0;entryX=0.14;entryY=-0.027;entryDx=0;entryDy=0;entryPerimeter=0;exitX=0.665;exitY=-0.027;exitDx=0;exitDy=0;exitPerimeter=0;" edge="1" parent="1">
          <mxGeometry width="50" height="50" relative="1" as="geometry">
            <mxPoint x="743.2" y="909.69" as="sourcePoint" />
            <mxPoint x="701.2" y="909.69" as="targetPoint" />
          </mxGeometry>
        </mxCell>
        <mxCell id="-EB4jdwyLUFz9tsIEVAe-143" value="HistoriaMantenimiento" style="rounded=0;whiteSpace=wrap;html=1;" vertex="1" parent="1">
          <mxGeometry x="820" y="1040" width="140" height="70" as="geometry" />
        </mxCell>
        <mxCell id="-EB4jdwyLUFz9tsIEVAe-144" value="Hay" style="text;html=1;align=center;verticalAlign=middle;resizable=0;points=[];autosize=1;strokeColor=none;fillColor=none;" vertex="1" parent="1">
          <mxGeometry x="835" y="976" width="40" height="30" as="geometry" />
        </mxCell>
        <mxCell id="-EB4jdwyLUFz9tsIEVAe-145" value="Es" style="text;html=1;align=center;verticalAlign=middle;resizable=0;points=[];autosize=1;strokeColor=none;fillColor=none;" vertex="1" parent="1">
          <mxGeometry x="905" y="976" width="40" height="30" as="geometry" />
        </mxCell>
        <mxCell id="-EB4jdwyLUFz9tsIEVAe-146" value="" style="endArrow=classic;html=1;rounded=0;" edge="1" parent="1">
          <mxGeometry width="50" height="50" relative="1" as="geometry">
            <mxPoint x="878" y="1004" as="sourcePoint" />
            <mxPoint x="878" y="974" as="targetPoint" />
          </mxGeometry>
        </mxCell>
        <mxCell id="-EB4jdwyLUFz9tsIEVAe-147" value="" style="endArrow=classic;html=1;rounded=0;exitX=0.003;exitY=0.097;exitDx=0;exitDy=0;exitPerimeter=0;" edge="1" parent="1">
          <mxGeometry width="50" height="50" relative="1" as="geometry">
            <mxPoint x="898" y="976" as="sourcePoint" />
            <mxPoint x="898" y="1004" as="targetPoint" />
          </mxGeometry>
        </mxCell>
        <mxCell id="-EB4jdwyLUFz9tsIEVAe-148" value="0..*" style="text;html=1;align=center;verticalAlign=middle;resizable=0;points=[];autosize=1;strokeColor=none;fillColor=none;" vertex="1" parent="1">
          <mxGeometry x="843" y="935" width="40" height="30" as="geometry" />
        </mxCell>
        <mxCell id="-EB4jdwyLUFz9tsIEVAe-149" value="1..1" style="text;html=1;align=center;verticalAlign=middle;resizable=0;points=[];autosize=1;strokeColor=none;fillColor=none;" vertex="1" parent="1">
          <mxGeometry x="887" y="1015" width="40" height="30" as="geometry" />
        </mxCell>
        <mxCell id="-EB4jdwyLUFz9tsIEVAe-150" value="NombrePeriferico" style="rounded=0;whiteSpace=wrap;html=1;" vertex="1" parent="1">
          <mxGeometry x="390" width="120" height="60" as="geometry" />
        </mxCell>
      </root>
    </mxGraphModel>
  </diagram>
</mxfile>
